<?xml version="1.0" encoding="UTF-8"?>
<svg version="1.1" xmlns="http://www.w3.org/2000/svg" width="512" height="512">
<path d="M0 0 C1.93918669 1.02208565 3.89345076 2.00933311 5.85253906 2.99267578 C23.99559761 12.20095096 40.86357724 23.47397382 56.87597656 35.98876953 C58.07600303 36.91258915 59.27651895 37.83577334 60.47753906 38.75830078 C77.12958863 51.61734526 92.6219692 65.6923541 107.56347656 80.48876953 C108.35463867 81.26687988 109.14580078 82.04499023 109.9609375 82.84667969 C111.06937012 83.95342041 111.06937012 83.95342041 112.20019531 85.08251953 C112.86108154 85.73929687 113.52196777 86.39607422 114.20288086 87.07275391 C117.50446537 90.8537017 118.10689995 93.76385818 118.23925781 98.79345703 C117.29107845 104.5233151 113.83880823 108.3958012 109.83300781 112.35986328 C109.34571701 112.84528091 108.85842621 113.33069855 108.35636902 113.83082581 C107.32856866 114.85193955 106.29719447 115.86946743 105.26245117 116.88354492 C103.703373 118.41166885 102.15502503 119.95000768 100.60839844 121.49072266 C95.19885757 126.85795864 89.68169278 132.04929028 83.87597656 136.98876953 C82.79273268 137.93790818 81.71065748 138.88838266 80.62988281 139.84033203 C63.42254692 154.85024643 44.96721947 168.42041879 25.62597656 180.55126953 C24.86639648 181.03273438 24.10681641 181.51419922 23.32421875 182.01025391 C13.81706615 187.87924848 3.79667591 192.86447624 -6.12402344 197.98876953 C-6.24000701 207.40305916 -6.32878376 216.81710187 -6.3830843 226.23195076 C-6.40914946 230.60394702 -6.44449033 234.97545355 -6.5012207 239.34716797 C-6.55565175 243.56823395 -6.58546715 247.78882966 -6.59840965 252.01021957 C-6.60762976 253.61858394 -6.62563504 255.22692332 -6.65267372 256.83508682 C-6.68911434 259.0927666 -6.69396294 261.34851753 -6.69165039 263.60644531 C-6.70275345 264.8899588 -6.71385651 266.17347229 -6.72529602 267.49588013 C-5.92285334 272.15739905 -4.48337684 273.69243033 -1.12402344 276.98876953 C1.85671119 279.00282178 4.27850421 279.26162906 7.84057617 279.34277344 C8.82517319 279.36844391 9.8097702 279.39411438 10.82420349 279.42056274 C11.88156204 279.43533661 12.93892059 279.45011047 14.02832031 279.46533203 C15.66674644 279.48954727 15.66674644 279.48954727 17.33827209 279.51425171 C19.64724409 279.54189271 21.95629711 279.56335525 24.26538086 279.57910156 C27.79795047 279.61361783 31.32681614 279.70141509 34.85839844 279.78955078 C37.10251156 279.80979842 39.34665645 279.82683259 41.59082031 279.84033203 C43.17382179 279.89285629 43.17382179 279.89285629 44.7888031 279.94644165 C50.23629154 280.04328924 50.23629154 280.04328924 54.61453247 277.23413086 C55.8843832 275.20015156 56.88118625 273.16662868 57.87597656 270.98876953 C64.4018074 263.18836236 72.41362713 260.01117016 82.35644531 258.64892578 C91.86422909 258.22822738 100.70502155 261.88933653 107.87597656 267.98876953 C115.20629534 275.86326044 118.24561369 284.62469057 118.08691406 295.30517578 C117.43625275 303.5830336 114.42272213 309.89748045 108.87597656 315.98876953 C108.31136719 316.61912109 107.74675781 317.24947266 107.16503906 317.89892578 C100.91238158 324.11200949 93.28014982 326.61827066 84.57128906 327.21533203 C75.35688937 326.92807257 67.3386063 324.01953188 60.45410156 317.80126953 C56.74114031 313.7901873 54.28139548 309.8961768 51.87597656 304.98876953 C51.23641525 304.9851239 50.59685394 304.98147827 49.93791199 304.97772217 C43.23697524 304.935673 36.53670919 304.86617208 29.83618164 304.78125 C27.34080742 304.75315221 24.84534604 304.73188246 22.34985352 304.71777344 C18.74743387 304.69618914 15.14604985 304.64945741 11.54394531 304.59814453 C9.89014107 304.59630157 9.89014107 304.59630157 8.20292664 304.59442139 C-3.75134949 304.37209864 -13.27577523 300.7416825 -21.80761719 292.32861328 C-32.04850233 281.11727019 -32.44407827 267.71219891 -32.31933594 253.12939453 C-32.31509109 251.22380768 -32.31509109 251.22380768 -32.3107605 249.27972412 C-32.30154328 245.94575962 -32.28366017 242.61208364 -32.26135254 239.27819824 C-32.24068119 235.85883033 -32.23171386 232.43943228 -32.22167969 229.02001953 C-32.19975912 222.34285842 -32.16638789 215.66583058 -32.12402344 208.98876953 C-32.98483017 209.32750092 -33.8456369 209.6662323 -34.73252869 210.01522827 C-35.8787117 210.46201935 -37.02489471 210.90881042 -38.20581055 211.36914062 C-39.33474228 211.81099701 -40.46367401 212.25285339 -41.6268158 212.70809937 C-47.2123917 214.75352565 -52.91263275 216.20606701 -58.68652344 217.61376953 C-59.89800049 217.91226807 -61.10947754 218.2107666 -62.35766602 218.51831055 C-75.63386943 221.70954539 -88.43774587 223.98876953 -102.12402344 223.98876953 C-102.12402344 246.75876953 -102.12402344 269.52876953 -102.12402344 292.98876953 C-100.47402344 293.31876953 -98.82402344 293.64876953 -97.12402344 293.98876953 C-88.0434012 300.63483357 -82.45751012 307.97605542 -80.12402344 318.98876953 C-78.850901 327.5785113 -81.20076729 336.85072572 -86.18261719 343.90283203 C-94.15684696 353.02007957 -101.99260403 357.07070605 -113.99902344 358.42626953 C-125.30876189 357.8237015 -133.60699675 353.23137795 -141.12402344 344.98876953 C-146.19504086 339.0075695 -148.87939541 330.0799819 -148.45996094 322.20751953 C-146.70705493 310.63018685 -142.31311267 302.95385434 -133.31152344 295.48486328 C-130.73128269 293.63354055 -129.34914413 292.98876953 -126.12402344 292.98876953 C-126.12402344 270.21876953 -126.12402344 247.44876953 -126.12402344 223.98876953 C-129.09402344 223.98876953 -132.06402344 223.98876953 -135.12402344 223.98876953 C-138.96589152 223.64996166 -142.75446897 223.04018388 -146.56152344 222.42626953 C-147.63539307 222.25353516 -148.7092627 222.08080078 -149.81567383 221.90283203 C-158.01243021 220.50652791 -166.03322265 218.64580776 -174.06152344 216.48876953 C-175.11976318 216.20445068 -176.17800293 215.92013184 -177.26831055 215.62719727 C-183.74971783 213.8178452 -189.90003829 211.53712315 -196.12402344 208.98876953 C-196.11958221 209.7034993 -196.11514099 210.41822906 -196.11056519 211.15461731 C-196.07026379 217.93531109 -196.03992588 224.71598665 -196.02039909 231.49676991 C-196.01002226 234.9817045 -195.99597663 238.466539 -195.97314453 241.95141602 C-195.94698206 245.97038662 -195.93750032 249.98925433 -195.92871094 254.00830078 C-195.91838837 255.24207962 -195.9080658 256.47585846 -195.89743042 257.74702454 C-195.89567159 271.49044329 -197.77114883 283.25742369 -207.24902344 293.80126953 C-214.02164299 300.08904831 -223.11401157 304.18299318 -232.34814453 304.03540039 C-233.38957611 304.0230687 -234.43100769 304.010737 -235.5039978 303.99803162 C-236.62384064 303.98337357 -237.74368347 303.96871552 -238.89746094 303.95361328 C-241.27245552 303.94758464 -243.64745878 303.94441821 -246.02246094 303.94384766 C-249.76522571 303.94212718 -253.50481519 303.92617031 -257.24707031 303.86206055 C-260.86116994 303.80466743 -264.47054733 303.81090681 -268.08496094 303.82861328 C-269.20075531 303.79573715 -270.31654968 303.76286102 -271.46615601 303.72898865 C-274.64783836 303.77769083 -277.12418102 303.91800211 -280.12402344 304.98876953 C-282.2435126 307.35173016 -283.53148574 309.58861438 -284.86245728 312.46363831 C-288.4470464 319.6384962 -295.83854757 323.42900774 -303.12402344 325.98876953 C-312.7768976 328.81400099 -322.82172411 326.36024348 -331.52636719 321.70361328 C-339.68955723 316.07868962 -344.34264435 307.6230614 -346.12402344 297.98876953 C-347.23009537 288.14165687 -344.74642408 279.13946426 -338.97949219 271.09423828 C-332.56414561 263.81450817 -324.4311528 260.04015505 -314.95214844 258.67626953 C-305.61554901 258.13106664 -296.58760683 261.22857798 -289.56152344 267.30126953 C-285.78259403 270.8507867 -283.62521002 274.51122373 -281.12402344 278.98876953 C-274.11324463 279.09034331 -267.10265619 279.16030814 -260.09130859 279.20849609 C-257.70712187 279.22858847 -255.32298429 279.25586734 -252.93896484 279.29052734 C-249.50834006 279.33914812 -246.07836788 279.36176265 -242.64746094 279.37939453 C-241.58473969 279.40003967 -240.52201843 279.42068481 -239.42709351 279.44195557 C-233.48156969 279.4437508 -229.73688593 279.1497486 -225.12402344 274.98876953 C-221.7099773 271.45142023 -221.75851735 268.65328037 -221.78344727 263.83349609 C-221.78300919 263.12090134 -221.78257111 262.40830658 -221.78211975 261.67411804 C-221.78420493 259.32559532 -221.80752223 256.97779209 -221.83105469 254.62939453 C-221.83665163 252.9984374 -221.84092126 251.36747521 -221.84391785 249.73651123 C-221.85535895 245.44889339 -221.88481966 241.1615816 -221.91802979 236.87408447 C-221.94874659 232.49699035 -221.96242662 228.11984667 -221.97753906 223.74267578 C-222.0096902 215.1579001 -222.06087749 206.57337291 -222.12402344 197.98876953 C-223.09156052 197.49062744 -223.09156052 197.49062744 -224.0786438 196.98242188 C-227.05661543 195.44653847 -230.03172565 193.90518777 -233.00683594 192.36376953 C-234.52821167 191.58066406 -234.52821167 191.58066406 -236.08032227 190.78173828 C-265.16660715 175.68529246 -291.45933241 155.28259905 -315.61230469 133.25439453 C-317.67539182 131.39344502 -319.76323733 129.57347995 -321.86621094 127.75830078 C-326.38605241 123.80865795 -330.67811781 119.65460698 -334.93652344 115.42626953 C-335.68611328 114.69730469 -336.43570313 113.96833984 -337.20800781 113.21728516 C-341.55006561 108.90626977 -345.29221358 105.0653872 -346.55761719 98.86376953 C-346.55955078 97.93564453 -346.55955078 97.93564453 -346.56152344 96.98876953 C-346.59052734 96.06064453 -346.59052734 96.06064453 -346.62011719 95.11376953 C-345.31600834 89.52766548 -340.70051126 85.31746646 -336.76464844 81.39892578 C-336.25657654 80.8913121 -335.74850464 80.38369843 -335.22503662 79.86070251 C-334.15499951 78.79366813 -333.0825515 77.72904644 -332.0078125 76.66674805 C-330.38715848 75.06425737 -328.77455809 73.45400341 -327.16308594 71.84228516 C-321.65440283 66.3523443 -316.06580759 61.01233939 -310.12402344 55.98876953 C-309.11429744 55.11186889 -308.10514699 54.23430492 -307.09667969 53.35595703 C-285.04897114 34.47483213 -261.45710821 18.14602162 -236.12402344 3.98876953 C-234.9305127 3.3175708 -234.9305127 3.3175708 -233.71289062 2.6328125 C-204.23724985 -13.84115552 -170.7645266 -25.39939118 -137.12402344 -29.01123047 C-135.62162109 -29.17751953 -135.62162109 -29.17751953 -134.08886719 -29.34716797 C-87.67293268 -33.68949307 -40.90707617 -21.74874894 0 0 Z " fill="#E4E2FE" transform="translate(370.1240234375,92.01123046875)"/>
<path d="M0 0 C5.91334194 4.91311495 11.37582931 10.19250815 16.8125 15.625 C17.67037109 16.470625 18.52824219 17.31625 19.41210938 18.1875 C20.23130859 19.00476563 21.05050781 19.82203125 21.89453125 20.6640625 C22.63550049 21.40092285 23.37646973 22.1377832 24.13989258 22.89697266 C27.57212044 26.77743082 28.22640712 29.60347072 28.36328125 34.8046875 C27.41510189 40.53454557 23.96283167 44.40703166 19.95703125 48.37109375 C19.46974045 48.85651138 18.98244965 49.34192902 18.48039246 49.84205627 C17.4525921 50.86317002 16.42121791 51.8806979 15.38647461 52.89477539 C13.82739644 54.42289931 12.27904847 55.96123815 10.73242188 57.50195312 C5.32288101 62.8691891 -0.19428378 68.06052075 -6 73 C-7.08324389 73.94913864 -8.16531909 74.89961313 -9.24609375 75.8515625 C-26.45342964 90.8614769 -44.90875709 104.43164926 -64.25 116.5625 C-65.00958008 117.04396484 -65.76916016 117.52542969 -66.55175781 118.02148438 C-76.05891041 123.89047894 -86.07930065 128.87570671 -96 134 C-96.11598358 143.41428963 -96.20476032 152.82833234 -96.25906086 162.24318123 C-96.28512603 166.61517749 -96.32046689 170.98668402 -96.37719727 175.35839844 C-96.43162831 179.57946441 -96.46144371 183.80006013 -96.47438622 188.02145004 C-96.48360633 189.62981441 -96.5016116 191.23815379 -96.52865028 192.84631729 C-96.56509091 195.10399707 -96.5699395 197.359748 -96.56762695 199.61767578 C-96.57873001 200.90118927 -96.58983307 202.18470276 -96.60127258 203.5071106 C-95.79882991 208.16862952 -94.3593534 209.7036608 -91 213 C-88.01926537 215.01405224 -85.59747235 215.27285953 -82.03540039 215.35400391 C-81.05080338 215.37967438 -80.06620636 215.40534485 -79.05177307 215.43179321 C-77.99441452 215.44656708 -76.93705597 215.46134094 -75.84765625 215.4765625 C-74.20923012 215.50077774 -74.20923012 215.50077774 -72.53770447 215.52548218 C-70.22873247 215.55312318 -67.91967945 215.57458572 -65.6105957 215.59033203 C-62.07802609 215.6248483 -58.54916042 215.71264556 -55.01757812 215.80078125 C-52.773465 215.82102889 -50.52932011 215.83806306 -48.28515625 215.8515625 C-46.70215477 215.90408676 -46.70215477 215.90408676 -45.08717346 215.95767212 C-39.63968503 216.05451971 -39.63968503 216.05451971 -35.26144409 213.24536133 C-33.99159336 211.21138202 -32.99479032 209.17785915 -32 207 C-25.47416916 199.19959282 -17.46234943 196.02240063 -7.51953125 194.66015625 C1.98825253 194.23945785 10.82904498 197.900567 18 204 C25.33031877 211.87449091 28.36963713 220.63592104 28.2109375 231.31640625 C27.56027619 239.59426407 24.54674557 245.90871092 19 252 C18.43539063 252.63035156 17.87078125 253.26070312 17.2890625 253.91015625 C11.03640501 260.12323996 3.40417326 262.62950112 -5.3046875 263.2265625 C-14.51908719 262.93930304 -22.53737026 260.03076235 -29.421875 253.8125 C-33.13483625 249.80141777 -35.59458109 245.90740727 -38 241 C-38.63956131 240.99635437 -39.27912262 240.99270874 -39.93806458 240.98895264 C-46.63900132 240.94690346 -53.33926737 240.87740255 -60.03979492 240.79248047 C-62.53516915 240.76438268 -65.03063052 240.74311293 -67.52612305 240.72900391 C-71.12854269 240.70741961 -74.72992672 240.66068788 -78.33203125 240.609375 C-79.98583549 240.60753204 -79.98583549 240.60753204 -81.67304993 240.60565186 C-93.62732605 240.3833291 -103.15175179 236.75291297 -111.68359375 228.33984375 C-121.9244789 217.12850066 -122.32005483 203.72342938 -122.1953125 189.140625 C-122.19106766 187.23503815 -122.19106766 187.23503815 -122.18673706 185.29095459 C-122.17751984 181.95699009 -122.15963673 178.62331411 -122.1373291 175.28942871 C-122.11665776 171.87006079 -122.10769043 168.45066275 -122.09765625 165.03125 C-122.07573568 158.35408889 -122.04236446 151.67706105 -122 145 C-122.86080673 145.33873138 -123.72161346 145.67746277 -124.60850525 146.02645874 C-125.75468826 146.47324982 -126.90087128 146.92004089 -128.08178711 147.38037109 C-129.21071884 147.82222748 -130.33965057 148.26408386 -131.50279236 148.71932983 C-137.08836826 150.76475611 -142.78860931 152.21729748 -148.5625 153.625 C-149.77397705 153.92349854 -150.9854541 154.22199707 -152.23364258 154.52954102 C-165.50984599 157.72077585 -178.31372243 160 -192 160 C-192 182.77 -192 205.54 -192 229 C-190.35 229.33 -188.7 229.66 -187 230 C-177.91937776 236.64606404 -172.33348668 243.98728589 -170 255 C-168.72687756 263.58974177 -171.07674385 272.86195619 -176.05859375 279.9140625 C-184.03282353 289.03131004 -191.86858059 293.08193652 -203.875 294.4375 C-215.18473845 293.83493197 -223.48297331 289.24260842 -231 281 C-236.07101742 275.01879996 -238.75537197 266.09121237 -238.3359375 258.21875 C-236.5830315 246.64141732 -232.18908923 238.96508481 -223.1875 231.49609375 C-220.60725926 229.64477102 -219.22512069 229 -216 229 C-216 206.23 -216 183.46 -216 160 C-218.97 160 -221.94 160 -225 160 C-228.84186809 159.66119213 -232.63044553 159.05141435 -236.4375 158.4375 C-237.51136963 158.26476562 -238.58523926 158.09203125 -239.69165039 157.9140625 C-247.88840678 156.51775838 -255.90919921 154.65703823 -263.9375 152.5 C-264.99573975 152.21568115 -266.05397949 151.9313623 -267.14428711 151.63842773 C-273.6256944 149.82907566 -279.77601485 147.54835362 -286 145 C-285.99555878 145.71472977 -285.99111755 146.42945953 -285.98654175 147.16584778 C-285.94624035 153.94654156 -285.91590244 160.72721711 -285.89637566 167.50800037 C-285.88599882 170.99293497 -285.87195319 174.47776947 -285.84912109 177.96264648 C-285.82295862 181.98161709 -285.81347688 186.0004848 -285.8046875 190.01953125 C-285.79436493 191.25331009 -285.78404236 192.48708893 -285.77340698 193.758255 C-285.77164816 207.50167376 -287.64712539 219.26865416 -297.125 229.8125 C-303.89761955 236.10027878 -312.98998813 240.19422365 -322.22412109 240.04663086 C-323.26555267 240.03429916 -324.30698425 240.02196747 -325.37997437 240.00926208 C-326.4998172 239.99460403 -327.61966003 239.97994598 -328.7734375 239.96484375 C-331.14843208 239.95881511 -333.52343534 239.95564868 -335.8984375 239.95507812 C-339.64120228 239.95335765 -343.38079175 239.93740078 -347.12304688 239.87329102 C-350.7371465 239.81589789 -354.34652389 239.82213728 -357.9609375 239.83984375 C-359.07673187 239.80696762 -360.19252625 239.77409149 -361.34213257 239.74021912 C-364.52381492 239.7889213 -367.00015758 239.92923258 -370 241 C-372.11948916 243.36296063 -373.4074623 245.59984485 -374.73843384 248.47486877 C-378.32302297 255.64972667 -385.71452414 259.44023821 -393 262 C-402.65287416 264.82523146 -412.69770067 262.37147395 -421.40234375 257.71484375 C-429.56553379 252.08992009 -434.21862092 243.63429187 -436 234 C-437.10607194 224.15288734 -434.62240065 215.15069473 -428.85546875 207.10546875 C-422.44012218 199.82573864 -414.30712937 196.05138552 -404.828125 194.6875 C-395.49152557 194.14229711 -386.4635834 197.23980845 -379.4375 203.3125 C-375.65857059 206.86201717 -373.50118658 210.5224542 -371 215 C-363.98922119 215.10157378 -356.97863275 215.17153861 -349.96728516 215.21972656 C-347.58309843 215.23981893 -345.19896085 215.26709781 -342.81494141 215.30175781 C-339.38431662 215.35037859 -335.95434445 215.37299312 -332.5234375 215.390625 C-331.46071625 215.41127014 -330.397995 215.43191528 -329.30307007 215.45318604 C-323.35754626 215.45498127 -319.61286249 215.16097907 -315 211 C-311.58595386 207.4626507 -311.63449391 204.66451084 -311.65942383 199.84472656 C-311.65898575 199.13213181 -311.65854767 198.41953705 -311.65809631 197.68534851 C-311.66018149 195.33682579 -311.6834988 192.98902255 -311.70703125 190.640625 C-311.71262819 189.00966787 -311.71689783 187.37870568 -311.71989441 185.7477417 C-311.73133551 181.46012386 -311.76079622 177.17281207 -311.79400635 172.88531494 C-311.82472315 168.50822082 -311.83840318 164.13107714 -311.85351562 159.75390625 C-311.88566676 151.16913057 -311.93685405 142.58460338 -312 134 C-312.96753708 133.50185791 -312.96753708 133.50185791 -313.95462036 132.99365234 C-316.932592 131.45776894 -319.90770221 129.91641824 -322.8828125 128.375 C-323.89706299 127.85292969 -324.91131348 127.33085937 -325.95629883 126.79296875 C-355.04258372 111.69652293 -381.33530897 91.29382952 -405.48828125 69.265625 C-406.90436612 67.98828562 -408.32740389 66.71826674 -409.77294922 65.47436523 C-414.9108381 61.04982675 -419.73535484 56.38449737 -424.5 51.5625 C-425.22703125 50.83095703 -425.9540625 50.09941406 -426.703125 49.34570312 C-428.47109499 47.56610176 -430.23666378 45.78419082 -432 44 C-431.67 43.34 -431.34 42.68 -431 42 C-430.22398437 42.73863281 -429.44796875 43.47726563 -428.6484375 44.23828125 C-421.29688329 51.16836477 -413.70396679 57.58246045 -405.67480469 63.71044922 C-404.12504967 64.9037154 -402.59663654 66.12456192 -401.0703125 67.34765625 C-380.44592365 83.73228347 -357.72818043 97.61672398 -334 109 C-333.38447266 109.3000293 -332.76894531 109.60005859 -332.13476562 109.90917969 C-275.05043896 137.72338136 -213.23268927 142.37390181 -152.95214844 121.94921875 C-127.12481799 112.78878627 -102.81919453 100.08644423 -80 85 C-79.20851563 84.48179687 -78.41703125 83.96359375 -77.6015625 83.4296875 C-66.43893765 76.0963126 -56.00569312 68.17907696 -45.82617188 59.53808594 C-43.33541984 57.44026003 -40.79207784 55.41013168 -38.25 53.375 C-32.5299595 48.69888846 -27.14502405 43.68993042 -21.75732422 38.63964844 C-19.87976631 36.88781752 -17.99003265 35.14987034 -16.09765625 33.4140625 C-15.45546143 32.82334961 -14.8132666 32.23263672 -14.15161133 31.62402344 C-12.90447724 30.47696109 -11.65567159 29.3317129 -10.4050293 28.18847656 C-7.29419988 25.41999067 -7.29419988 25.41999067 -5 22 C-4.34 22 -3.68 22 -3 22 C-2.731875 21.4225 -2.46375 20.845 -2.1875 20.25 C-1 18 -1 18 0.625 16.3125 C2.77507202 12.69646978 2.44558415 9.10521793 2 5 C1.13346586 2.06919326 1.13346586 2.06919326 0 0 Z " fill="#D0D0F7" transform="translate(460,156)"/>
<path d="M0 0 C2.45163552 1.92872098 4.80536642 3.93416764 7.15234375 5.98828125 C7.88582031 6.56707031 8.61929688 7.14585938 9.375 7.7421875 C26.47267115 21.70377788 36.38517214 43.61952674 40.15234375 64.98828125 C41.96151802 93.20391358 37.35057246 118.49357091 18.92578125 140.66796875 C16.71948691 143.16237025 14.45319102 145.58117815 12.15234375 147.98828125 C11.23388672 149.01888672 11.23388672 149.01888672 10.296875 150.0703125 C-5.57262329 167.22561235 -30.66460784 175.94046768 -53.56640625 177.19140625 C-78.11666679 177.49574832 -102.50096016 169.7015672 -120.84765625 152.98828125 C-121.81316406 152.11558594 -122.77867187 151.24289062 -123.7734375 150.34375 C-140.72530736 134.50378862 -152.79730817 111.76225658 -153.98193359 88.33251953 C-154.89374386 60.51999217 -148.7812912 37.77108662 -130.84765625 15.98828125 C-130.10515625 14.99828125 -129.36265625 14.00828125 -128.59765625 12.98828125 C-96.95565551 -24.18338952 -38.58284722 -27.25674392 0 0 Z " fill="#FEFEFD" transform="translate(312.84765625,110.01171875)"/>
<path d="M0 0 C2.45163552 1.92872098 4.80536642 3.93416764 7.15234375 5.98828125 C7.88582031 6.56707031 8.61929688 7.14585938 9.375 7.7421875 C26.47267115 21.70377788 36.38517214 43.61952674 40.15234375 64.98828125 C41.96151802 93.20391358 37.35057246 118.49357091 18.92578125 140.66796875 C16.71948691 143.16237025 14.45319102 145.58117815 12.15234375 147.98828125 C11.23388672 149.01888672 11.23388672 149.01888672 10.296875 150.0703125 C-5.57262329 167.22561235 -30.66460784 175.94046768 -53.56640625 177.19140625 C-78.11666679 177.49574832 -102.50096016 169.7015672 -120.84765625 152.98828125 C-121.81316406 152.11558594 -122.77867187 151.24289062 -123.7734375 150.34375 C-140.72530736 134.50378862 -152.79730817 111.76225658 -153.98193359 88.33251953 C-154.89374386 60.51999217 -148.7812912 37.77108662 -130.84765625 15.98828125 C-130.10515625 14.99828125 -129.36265625 14.00828125 -128.59765625 12.98828125 C-96.95565551 -24.18338952 -38.58284722 -27.25674392 0 0 Z M-106.84765625 30.98828125 C-107.54632813 31.65214844 -108.245 32.31601563 -108.96484375 33 C-120.71011013 44.99662422 -126.54722795 62.37550985 -127.16015625 78.86328125 C-126.92758788 97.3207527 -119.93598179 115.28327379 -106.76171875 128.3046875 C-90.90821951 142.90435771 -73.04018834 150.13641836 -51.44921875 149.40234375 C-35.74825342 148.34407606 -21.63473268 141.11077055 -9.84765625 130.98828125 C-9.2546875 130.49070312 -8.66171875 129.993125 -8.05078125 129.48046875 C3.30465609 119.11472549 11.17380007 102.975243 12.3293457 87.63916016 C12.93555035 63.65664183 7.66428186 46.21848472 -8.97265625 28.42578125 C-23.73226422 14.13987691 -42.28244173 9.33216674 -62.265625 9.6484375 C-79.87482118 10.37574106 -94.53045633 18.73371116 -106.84765625 30.98828125 Z " fill="#F8B939" transform="translate(312.84765625,110.01171875)"/>
<path d="M0 0 C5.00548956 1.65742991 9.87338059 3.50083698 14.75 5.5 C15.90048828 5.96212891 15.90048828 5.96212891 17.07421875 6.43359375 C17.80769531 6.73394531 18.54117188 7.03429687 19.296875 7.34375 C19.96041992 7.61380859 20.62396484 7.88386719 21.30761719 8.16210938 C23 9 23 9 25 11 C25.25396729 13.40635681 25.25396729 13.40635681 25.25878906 16.46850586 C25.26509338 17.61407455 25.27139771 18.75964325 25.27789307 19.93992615 C25.27182037 21.80851036 25.27182037 21.80851036 25.265625 23.71484375 C25.26753845 24.9954921 25.2694519 26.27614044 25.27142334 27.59559631 C25.27437703 30.31516311 25.27007555 33.03459882 25.26074219 35.75415039 C25.24944959 39.21029059 25.25583981 42.66611664 25.26788712 46.12224483 C25.276945 49.44480143 25.27055618 52.76727828 25.265625 56.08984375 C25.26967346 57.31734848 25.27372192 58.54485321 25.27789307 59.80955505 C25.20423642 73.52528126 23.33554744 85.28793011 13.875 95.8125 C7.10238045 102.10027878 -1.98998813 106.19422365 -11.22412109 106.04663086 C-12.26555267 106.03429916 -13.30698425 106.02196747 -14.37997437 106.00926208 C-15.4998172 105.99460403 -16.61966003 105.97994598 -17.7734375 105.96484375 C-20.14843208 105.95881511 -22.52343534 105.95564868 -24.8984375 105.95507812 C-28.64120228 105.95335765 -32.38079175 105.93740078 -36.12304688 105.87329102 C-39.7371465 105.81589789 -43.34652389 105.82213728 -46.9609375 105.83984375 C-48.63462906 105.79052956 -48.63462906 105.79052956 -50.34213257 105.74021912 C-53.52381492 105.7889213 -56.00015758 105.92923258 -59 107 C-61.11948916 109.36296063 -62.4074623 111.59984485 -63.73843384 114.47486877 C-67.32302297 121.64972667 -74.71452414 125.44023821 -82 128 C-91.65287416 130.82523146 -101.69770067 128.37147395 -110.40234375 123.71484375 C-118.56553379 118.08992009 -123.21862092 109.63429187 -125 100 C-126.10607194 90.15288734 -123.62240065 81.15069473 -117.85546875 73.10546875 C-111.44012218 65.82573864 -103.30712937 62.05138552 -93.828125 60.6875 C-84.49152557 60.14229711 -75.4635834 63.23980845 -68.4375 69.3125 C-64.65857059 72.86201717 -62.50118658 76.5224542 -60 81 C-52.98922119 81.10157378 -45.97863275 81.17153861 -38.96728516 81.21972656 C-36.58309843 81.23981893 -34.19896085 81.26709781 -31.81494141 81.30175781 C-28.38431662 81.35037859 -24.95434445 81.37299312 -21.5234375 81.390625 C-20.46071625 81.41127014 -19.397995 81.43191528 -18.30307007 81.45318604 C-12.35754626 81.45498127 -8.61286249 81.16097907 -4 77 C-0.60672934 73.47178001 -0.60903422 70.6479692 -0.56762695 65.84472656 C-0.5574353 65.13213181 -0.54724365 64.41953705 -0.53674316 63.68534851 C-0.50662129 61.33702728 -0.4973488 58.98911401 -0.48828125 56.640625 C-0.4714339 55.00965012 -0.45328358 53.37868822 -0.43388367 51.7477417 C-0.38638334 47.46030737 -0.35657432 43.17292567 -0.33044434 38.88531494 C-0.3006389 34.50807298 -0.25410853 30.13101235 -0.20898438 25.75390625 C-0.12295091 17.16935992 -0.05560596 8.58479708 0 0 Z " fill="#474646" transform="translate(149,290)"/>
<path d="M0 0 C0.00142502 0.90122589 0.00285004 1.80245178 0.00431824 2.73098755 C0.02216743 11.23530826 0.06383777 19.73910977 0.13209057 28.24318123 C0.16634276 32.61498972 0.19146775 36.98644943 0.19555664 41.35839844 C0.19984347 45.57975969 0.2283372 49.8003344 0.27343178 54.02145004 C0.28639464 55.62969248 0.29071872 57.2380291 0.28615379 58.84631729 C0.28123867 61.10429448 0.30737454 63.35998075 0.34057617 65.61767578 C0.34723801 66.90118927 0.35389984 68.18470276 0.36076355 69.5071106 C1.20990528 74.14695576 2.65272001 75.70855107 6 79 C8.98073463 81.01405224 11.40252765 81.27285953 14.96459961 81.35400391 C15.94919662 81.37967438 16.93379364 81.40534485 17.94822693 81.43179321 C19.00558548 81.44656708 20.06294403 81.46134094 21.15234375 81.4765625 C22.24462784 81.49270599 23.33691193 81.50884949 24.46229553 81.52548218 C26.77126753 81.55312318 29.08032055 81.57458572 31.3894043 81.59033203 C34.92197391 81.6248483 38.45083958 81.71264556 41.98242188 81.80078125 C44.226535 81.82102889 46.47067989 81.83806306 48.71484375 81.8515625 C49.77017807 81.88657867 50.82551239 81.92159485 51.91282654 81.95767212 C57.36031497 82.05451971 57.36031497 82.05451971 61.73855591 79.24536133 C63.00840664 77.21138202 64.00520968 75.17785915 65 73 C71.52583084 65.19959282 79.53765057 62.02240063 89.48046875 60.66015625 C98.98825253 60.23945785 107.82904498 63.900567 115 70 C122.33031877 77.87449091 125.36963713 86.63592104 125.2109375 97.31640625 C124.56027619 105.59426407 121.54674557 111.90871092 116 118 C115.43539062 118.63035156 114.87078125 119.26070313 114.2890625 119.91015625 C108.03640501 126.12323996 100.40417326 128.62950112 91.6953125 129.2265625 C82.48091281 128.93930304 74.46262974 126.03076235 67.578125 119.8125 C63.86516375 115.80141777 61.40541891 111.90740727 59 107 C58.36043869 106.99635437 57.72087738 106.99270874 57.06193542 106.98895264 C50.36099868 106.94690346 43.66073263 106.87740255 36.96020508 106.79248047 C34.46483085 106.76438268 31.96936948 106.74311293 29.47387695 106.72900391 C25.87145731 106.70741961 22.27007328 106.66068788 18.66796875 106.609375 C17.01416451 106.60753204 17.01416451 106.60753204 15.32695007 106.60565186 C3.37267395 106.3833291 -6.15175179 102.75291297 -14.68359375 94.33984375 C-24.98075648 83.06689004 -25.31844307 69.5771752 -25.1953125 54.921875 C-25.1924826 53.62928772 -25.18965271 52.33670044 -25.18673706 51.00494385 C-25.17919587 47.61183559 -25.15963256 44.21890573 -25.1373291 40.8258667 C-25.11666233 37.34617525 -25.10769138 33.86645423 -25.09765625 30.38671875 C-25.07637491 23.59107376 -25.0423581 16.79554551 -25 10 C-21.21091124 8.32742736 -17.41832115 6.66294885 -13.625 5 C-12.00464844 4.28457031 -12.00464844 4.28457031 -10.3515625 3.5546875 C-9.3203125 3.10351562 -8.2890625 2.65234375 -7.2265625 2.1875 C-6.27346191 1.76855469 -5.32036133 1.34960938 -4.33837891 0.91796875 C-2 0 -2 0 0 0 Z " fill="#474646" transform="translate(363,290)"/>
<path d="M0 0 C10.57259885 7.81008109 16.31131822 17.1456843 19 30 C20.57134259 42.49057016 16.64309378 55.05887134 9 65 C0.20700767 74.58621813 -10.65569961 79.76326288 -23.60449219 80.38549805 C-35.65474768 80.68633073 -45.59849059 77.21036961 -54.78515625 69.21484375 C-63.64830424 60.35169576 -69.15768205 48.88599733 -69.5 36.25 C-68.89210246 22.71195752 -62.88587583 11.17727285 -53 2 C-37.07266543 -9.79136543 -16.85960536 -10.4444725 0 0 Z " fill="#F8B839" transform="translate(281,153)"/>
<path d="M0 0 C7.92 0 15.84 0 24 0 C24 22.77 24 45.54 24 69 C25.65 69.33 27.3 69.66 29 70 C38.08062224 76.64606404 43.66651332 83.98728589 46 95 C47.27312244 103.58974177 44.92325615 112.86195619 39.94140625 119.9140625 C31.96717647 129.03131004 24.13141941 133.08193652 12.125 134.4375 C0.81526155 133.83493197 -7.48297331 129.24260842 -15 121 C-20.07101742 115.01879996 -22.75537197 106.09121237 -22.3359375 98.21875 C-20.5830315 86.64141732 -16.18908923 78.96508481 -7.1875 71.49609375 C-4.60725926 69.64477102 -3.22512069 69 0 69 C0 46.23 0 23.46 0 0 Z " fill="#7878F6" transform="translate(244,316)"/>
<path d="M0 0 C6.70032 5.64184918 10.37680277 11.8491583 13.12109375 20.08203125 C13.84644603 31.71556583 13.24213292 41.00236521 5.71484375 50.30078125 C-1.10814481 57.92647435 -9.35028268 61.49911843 -19.37890625 62.39453125 C-28.66561805 62.23623503 -38.35823364 58.76646505 -44.87890625 52.08203125 C-51.3365571 44.4006703 -54.53770521 35.63817851 -54.16015625 25.5859375 C-53.12897276 16.40554003 -49.58307849 8.2662259 -42.6171875 2.0703125 C-29.743016 -7.57015815 -13.78488435 -9.18368822 0 0 Z " fill="#00D67E" transform="translate(77.87890625,356.91796875)"/>
<path d="M0 0 C7.27820923 5.19504687 11.41782726 12.14973716 13.9375 20.625 C15.06481904 30.31994375 14.33999983 39.32963921 8.5625 47.5 C7.48861328 48.79652177 6.38348054 50.06774169 5.25 51.3125 C4.68539062 51.94285156 4.12078125 52.57320313 3.5390625 53.22265625 C-2.71359499 59.43573996 -10.34582674 61.94200112 -19.0546875 62.5390625 C-28.27974748 62.2514707 -36.23782501 59.32251358 -43.171875 53.16015625 C-51.12717919 44.66772386 -53.14233843 36.43844118 -53.0234375 24.98828125 C-52.24794054 14.5633864 -47.61886358 7.7288247 -40.12890625 0.81640625 C-28.5174261 -8.56745181 -12.15966795 -7.48758077 0 0 Z " fill="#EF5543" transform="translate(473.75,356.6875)"/>
<path d="M0 0 C4.09798964 2.94565512 6.79560035 6.19641724 9.4375 10.4375 C9.82510498 11.05367187 10.21270996 11.66984375 10.61206055 12.3046875 C24.2822245 34.48999403 29.16719198 61.07223716 23.4375 86.6875 C18.97622423 104.69874713 9.77360832 119.63649148 -3 133 C-3.91845703 134.03060547 -3.91845703 134.03060547 -4.85546875 135.08203125 C-20.72496704 152.2373311 -45.81695159 160.95218643 -68.71875 162.203125 C-92.90219297 162.50291975 -118.16124628 154.98249354 -136 138 C-137.03333337 136.69233034 -138.04504088 135.36595419 -139 134 C-135.44126017 135.69299273 -132.12753725 137.72347765 -128.75 139.75 C-106.92756671 152.4158641 -79.39950181 156.47297284 -54.8125 150 C-30.15710043 142.84300119 -8.66404029 126.3516099 4 104 C10.69703953 91.43463974 15.54382445 78.36952991 16 64 C16.0515625 62.79859375 16.103125 61.5971875 16.15625 60.359375 C16.3940263 50.25388237 15.15601365 40.86325872 13 31 C12.80664062 30.09894531 12.61328125 29.19789063 12.4140625 28.26953125 C10.61241621 21.28522714 7.14447615 15.00517602 3.83984375 8.63671875 C2.38320397 5.81479893 1.11200124 2.97878053 0 0 Z " fill="#ECB124" transform="translate(328,125)"/>
<path d="M0 0 C7.92 0 15.84 0 24 0 C24 22.77 24 45.54 24 69 C22.35 68.67 20.7 68.34 19 68 C16.48050914 67.90779043 13.95867269 67.86999271 11.4375 67.875 C9.48650391 67.87113281 9.48650391 67.87113281 7.49609375 67.8671875 C3.87900365 67.88466336 3.87900365 67.88466336 0 69 C0 46.23 0 23.46 0 0 Z " fill="#474646" transform="translate(244,316)"/>
<path d="M0 0 C3.20393179 2.48565904 6.15994222 5.10734856 9 8 C5.34241185 8 3.64970666 6.90877371 0.4375 5.1875 C-14.91093808 -2.65314789 -32.82651345 -4.55798909 -49.60546875 -0.171875 C-68.38717046 6.31202663 -83.83230375 18.08514402 -93 36 C-101.15510348 52.98307028 -101.67777955 73.33094771 -95.57421875 91.01391602 C-93.86748604 95.51725525 -91.61317223 99.37910448 -88.87963867 103.34033203 C-88.58935791 103.88802246 -88.29907715 104.43571289 -88 105 C-88.33 105.66 -88.66 106.32 -89 107 C-102.15223324 94.40743626 -108.88996604 76.35921924 -109.4375 58.3125 C-108.6737246 37.89423755 -100.03785145 19.67584577 -85.234375 5.796875 C-61.26038542 -15.56809516 -26.76500969 -16.36732823 0 0 Z " fill="#E5E3FB" transform="translate(295,131)"/>
<path d="M0 0 C4.50334071 3.23992499 7.52260466 7.39203273 9.26953125 12.6328125 C10.16813725 20.74301602 9.6761683 26.80442034 4.98046875 33.60546875 C0.8065754 38.55124649 -4.44740698 41.10640267 -10.828125 41.890625 C-16.63334417 42.18934983 -21.01377221 41.07446709 -25.73046875 37.6328125 C-30.60572864 33.03586469 -34.25641947 28.6291582 -35.06640625 21.80078125 C-35.15219958 15.25474981 -34.93897957 9.88465887 -30.73046875 4.6328125 C-21.49831625 -4.00185205 -11.34567782 -6.25352321 0 0 Z " fill="#494746" transform="translate(268.73046875,170.3671875)"/>
<path d="M0 0 C6.13254239 2.57725381 8.80842343 8.13436801 11.2734375 14.0625 C15.82341036 27.4865334 14.677309 38.94876151 8.71484375 51.76171875 C2.56986121 62.93908254 -6.87839172 69.05941769 -18.625 73.3125 C-31.44992829 75.9552125 -43.73826133 74.36207551 -54.8046875 67.1796875 C-57.00529616 65.54122809 -59.08487379 63.96461267 -61 62 C-61 61.34 -61 60.68 -61 60 C-59.7315625 60.433125 -59.7315625 60.433125 -58.4375 60.875 C-44.27252947 65.51080854 -33.00339142 66.61178093 -19 61 C-15.72635652 59.28405697 -12.86738846 57.32658435 -10 55 C-9.37480469 54.49855469 -8.74960937 53.99710938 -8.10546875 53.48046875 C-1.24139376 47.33420553 3.50926981 38.21373376 4.13671875 28.99023438 C4.57428243 19.1534662 4.55741138 10.93171247 0 2 C0 1.34 0 0.68 0 0 Z " fill="#ECB125" transform="translate(286,159)"/>
<path d="M0 0 C8.84509018 6.95881734 13.65964069 13.8626725 15.3203125 25.18359375 C15.83610998 34.55391464 12.7641201 43.54340484 6.625 50.5625 C-0.95250228 58.16460457 -8.25649363 61.23863638 -18.875 62.4375 C-29.57091742 61.88842826 -37.76504269 57.70233181 -45 50 C-44.67 49.34 -44.34 48.68 -44 48 C-43.00033203 48.433125 -43.00033203 48.433125 -41.98046875 48.875 C-32.12291842 52.8455937 -23.67898261 53.51503583 -13.70703125 49.44921875 C-6.46510238 45.57222653 -0.11907503 39.65758849 3.22265625 32.0703125 C5.54981609 22.87861586 5.66064432 11.90612756 0.875 3.53125 C0 2 0 2 0 0 Z " fill="#5F5FEF" transform="translate(275,388)"/>
<path d="M0 0 C6.22821657 2.7477426 9.46858368 8.40002879 12.046875 14.4609375 C15.178968 23.82766846 14.956426 32.90768516 11 42 C9.27983014 44.96340789 7.30422227 47.46956413 5 50 C4.43539062 50.63035156 3.87078125 51.26070313 3.2890625 51.91015625 C-2.96359499 58.12323996 -10.59582674 60.62950112 -19.3046875 61.2265625 C-28.99116743 60.92458591 -37.79565327 57.48162757 -44.75 50.625 C-45.4925 49.75875 -46.235 48.8925 -47 48 C-46.67 47.34 -46.34 46.68 -46 46 C-45.40832031 46.27714844 -44.81664062 46.55429687 -44.20703125 46.83984375 C-33.57732373 51.71251555 -26.20826852 51.85543394 -15.08984375 48.1875 C-6.44178035 44.86384479 -1.88718594 39.09999435 2.0390625 30.8046875 C5.59307393 21.53768572 4.6043767 13.24045334 0.875 4.21484375 C0 2 0 2 0 0 Z " fill="#E24B40" transform="translate(474,358)"/>
<path d="M0 0 C7.109057 5.40861974 11.60746533 11.30853556 14 20 C14.98973542 31.68401948 14.05492407 41.00200556 6.59375 50.21875 C-0.22923856 57.8444431 -8.47137643 61.41708718 -18.5 62.3125 C-27.14546873 62.16513406 -35.89679973 59.02617412 -42.54296875 53.52734375 C-44.43245074 51.54668032 -45.37454 49.65820502 -46 47 C-45.40832031 47.27714844 -44.81664062 47.55429687 -44.20703125 47.83984375 C-35.64931738 51.76271095 -27.69323502 53.6419734 -18.4375 50.8125 C-9.12496625 47.32435582 -2.44883659 41.86187885 2.375 33.125 C5.4419875 25.62505578 5.40227006 15.68430732 3.09375 7.97265625 C2.05877405 5.59904004 2.05877405 5.59904004 0.875 3.56640625 C0 2 0 2 0 0 Z " fill="#00C278" transform="translate(77,357)"/>
<path d="M0 0 C2 2 2 2 2.07421875 4.9453125 C1 8 1 8 -2.10546875 9.6171875 C-3.45979428 10.05654217 -4.82116996 10.4745348 -6.1875 10.875 C-26.39082485 17.64494967 -43.00545792 30.94261043 -53 50 C-54.3914319 52.92952824 -55.72992927 55.87197272 -57.01953125 58.84765625 C-58 61 -58 61 -59 62 C-61.4375 62.1875 -61.4375 62.1875 -64 62 C-64.66 61.34 -65.32 60.68 -66 60 C-65.75223129 54.1836296 -64.34652331 49.77885353 -61.5 44.6875 C-61.14542725 44.04087402 -60.79085449 43.39424805 -60.42553711 42.72802734 C-56.94421459 36.57502759 -52.76196651 31.22253667 -48 26 C-47.32582031 25.23300781 -46.65164062 24.46601562 -45.95703125 23.67578125 C-35.21695313 12.12969352 -16.4690394 -1.07406779 0 0 Z " fill="#FACD71" transform="translate(238,103)"/>
<path d="M0 0 C0.95509436 2.86528307 1.0302628 4.26338399 0.875 7.1875 C0.80644936 14.21394095 3.07254786 19.92762279 8 25 C13.52572182 28.86800527 18.13328616 29.14380178 24.75 29.0625 C25.44738281 29.05798828 26.14476562 29.05347656 26.86328125 29.04882812 C28.57555803 29.0371002 30.28779033 29.01916653 32 29 C32 29.66 32 30.32 32 31 C25.47409959 35.9721146 19.13600307 38.07926571 11 37 C4.37503883 35.06158544 -0.14429412 30.59598394 -4 25 C-6.71900678 19.48972047 -6.53777913 14.02149664 -6 8 C-4.47506657 3.7882791 -3.72020689 2.48013792 0 0 Z " fill="#312F2D" transform="translate(240,175)"/>
<path d="M0 0 C0.66 0.66 1.32 1.32 2 2 C1.625 4.625 1.625 4.625 1 7 C0.01 7.268125 -0.98 7.53625 -2 7.8125 C-3.33403206 8.20597208 -4.6673236 8.60196054 -6 9 C-7.00740234 9.27457031 -7.00740234 9.27457031 -8.03515625 9.5546875 C-14.36975125 11.53195993 -17.85617331 15.28156957 -21.1328125 20.96484375 C-22.04546628 23.10670239 -22.32418796 24.81307172 -22.5 27.125 C-23 31 -23 31 -25 33 C-29.55555556 32.44444444 -29.55555556 32.44444444 -31 31 C-31.94375963 22.77580893 -29.61151934 16.82239178 -25 10 C-18.37817504 2.96896114 -9.73238562 -0.99310057 0 0 Z " fill="#9F9FF8" transform="translate(259,388)"/>
<path d="M0 0 C0.66 0.66 1.32 1.32 2 2 C1.44444444 6.55555556 1.44444444 6.55555556 0 8 C-1.53677348 8.29734506 -3.07977879 8.5627437 -4.625 8.8125 C-10.80528439 10.02206994 -14.98923918 11.77185964 -19.3125 16.5625 C-21.28102293 20.57245411 -21.91846722 24.20732656 -22.5078125 28.609375 C-23 31 -23 31 -25 33 C-29.55555556 32.44444444 -29.55555556 32.44444444 -31 31 C-31.82935577 24.02525391 -30.87176234 18.83199422 -27 13 C-26.61070313 12.39285156 -26.22140625 11.78570312 -25.8203125 11.16015625 C-19.80039026 3.02079394 -9.9547117 -1.28447893 0 0 Z " fill="#48E1A3" transform="translate(61,357)"/>
<path d="M0 0 C1.15048828 -0.00773437 1.15048828 -0.00773437 2.32421875 -0.015625 C4.3125 0.25 4.3125 0.25 6.3125 2.25 C5.75694444 6.80555556 5.75694444 6.80555556 4.3125 8.25 C2.75463197 8.54631765 1.1908965 8.81205019 -0.375 9.0625 C-7.31459799 10.40884141 -11.68310166 13.38641672 -15.6875 19.25 C-17.19033111 22.25566223 -17.73191535 24.5775632 -18.1875 27.9375 C-18.6875 31.25 -18.6875 31.25 -20.6875 33.25 C-25.24305556 32.69444444 -25.24305556 32.69444444 -26.6875 31.25 C-27.28551172 24.55226868 -25.83037299 20.13056723 -22.6875 14.25 C-22.130625 13.198125 -21.57375 12.14625 -21 11.0625 C-15.92495149 4.89014371 -8.16391454 -0.05544254 0 0 Z " fill="#F38679" transform="translate(452.6875,356.75)"/>
<path d="M0 0 C2.5625 0.1875 2.5625 0.1875 4.5625 2.1875 C4.59767356 5.07173153 4.51499187 7.81964999 4.3125 10.6875 C4.27253906 11.47253906 4.23257813 12.25757813 4.19140625 13.06640625 C3.81922505 18.93077495 3.81922505 18.93077495 1.5625 21.1875 C-0.9375 21.4375 -0.9375 21.4375 -3.4375 21.1875 C-5.4375 19.1875 -5.4375 19.1875 -5.703125 16.32421875 C-5.69796875 15.18597656 -5.6928125 14.04773438 -5.6875 12.875 C-5.69265625 11.74449219 -5.6978125 10.61398438 -5.703125 9.44921875 C-5.35040914 5.11807542 -4.92288681 0.3786836 0 0 Z " fill="#FACD70" transform="translate(172.4375,171.8125)"/>
<path d="M0 0 C3 0.25 3 0.25 5 2.25 C5.36487512 5.09602594 5.40199375 6.6364306 3.8125 9.0625 C1.3864306 10.65199375 -0.15397406 10.61487512 -3 10.25 C-5 8.25 -5 8.25 -5.25 5.25 C-4.90584825 1.120179 -4.129821 0.34415175 0 0 Z " fill="#F7F7F7" transform="translate(266,172.75)"/>
<path d="M0 0 C-1.75864246 2.1793144 -2.69396 2.93686419 -5.48046875 3.51171875 C-6.82044922 3.59873047 -6.82044922 3.59873047 -8.1875 3.6875 C-9.08855469 3.75324219 -9.98960937 3.81898438 -10.91796875 3.88671875 C-11.60503906 3.92410156 -12.29210937 3.96148437 -13 4 C-10.80732639 1.49801506 -9.17176993 0.49962518 -5.9375 -0.25 C-5.24527344 -0.42015625 -4.55304688 -0.5903125 -3.83984375 -0.765625 C-2 -1 -2 -1 0 0 Z " fill="#E3DFF1" transform="translate(286,283)"/>
</svg>
