<?xml version="1.0" standalone="no"?>
<!DOCTYPE svg PUBLIC "-//W3C//DTD SVG 20010904//EN"
 "http://www.w3.org/TR/2001/REC-SVG-20010904/DTD/svg10.dtd">
<svg version="1.0" xmlns="http://www.w3.org/2000/svg"
 width="826.000000pt" height="465.000000pt" viewBox="0 0 826.000000 465.000000"
 preserveAspectRatio="xMidYMid meet">
<metadata>
Created by potrace 1.16, written by Peter Selinger 2001-2019
</metadata>
<g transform="translate(0.000000,465.000000) scale(0.100000,-0.100000)"
fill="#000000" stroke="none">
<path d="M1695 4139 c-43 -10 -88 -48 -111 -91 -12 -23 -14 -278 -14 -1690 0
-915 4 -1669 9 -1676 7 -11 191 -14 1012 -15 948 -2 1004 -3 1007 -20 3 -16
-60 -17 -1265 -15 -733 2 -1267 7 -1265 12 6 14 -20 26 -56 26 -29 0 -33 -3
-30 -22 2 -17 16 -27 51 -40 85 -32 287 -67 442 -78 213 -14 5150 -14 5322 1
165 14 333 42 420 71 54 18 69 27 71 46 3 19 -1 22 -30 22 -18 0 -40 -5 -48
-10 -13 -9 -13 -11 0 -20 10 -6 -419 -10 -1257 -10 -1266 0 -1273 0 -1273 20
0 20 7 20 1005 20 l1004 0 11 37 c8 27 10 519 8 1678 l-3 1640 -22 36 c-13 20
-22 38 -20 40 1 2 0 3 -1 2 -2 -1 -20 7 -40 17 -36 18 -131 18 -2462 23 -1520
4 -2440 2 -2465 -4z m2765 -3478 c25 -5 39 -9 31 -10 -11 -1 -11 -4 -1 -16 11
-13 -30 -15 -355 -15 -325 0 -366 2 -355 15 10 12 10 15 -1 16 -8 1 4 5 26 9
55 10 600 10 655 1z"/>
</g>
</svg>
